<svg xmlns="http://www.w3.org/2000/svg" xmlns:xlink="http://www.w3.org/1999/xlink" width="225" zoomAndPan="magnify" viewBox="0 0 168.75 30.000001" height="40" preserveAspectRatio="xMidYMid meet" version="1.0"><defs><g/><clipPath id="54d09c098f"><path d="M 23.566406 3 L 44.867188 3 L 44.867188 15 L 23.566406 15 Z M 23.566406 3 " clip-rule="nonzero"/></clipPath><clipPath id="c7efc8173c"><path d="M 23.566406 15 L 44.867188 15 L 44.867188 27.585938 L 23.566406 27.585938 Z M 23.566406 15 " clip-rule="nonzero"/></clipPath></defs><g fill="#ffffff" fill-opacity="1"><g transform="translate(49.91384, 25.040324)"><g><path d="M 15.671875 -21.578125 L 15.671875 -19.296875 L 9.78125 -19.296875 L 9.78125 0 L 6.96875 0 L 6.96875 -19.296875 L 1.046875 -19.296875 L 1.046875 -21.578125 Z M 15.671875 -21.578125 "/></g></g></g><g fill="#ffffff" fill-opacity="1"><g transform="translate(66.663272, 25.040324)"><g><path d="M 5.203125 -14.21875 C 5.703125 -15.1875 6.410156 -15.9375 7.328125 -16.46875 C 8.242188 -17.007812 9.363281 -17.28125 10.6875 -17.28125 L 10.6875 -14.375 L 9.9375 -14.375 C 6.78125 -14.375 5.203125 -12.660156 5.203125 -9.234375 L 5.203125 0 L 2.390625 0 L 2.390625 -16.96875 L 5.203125 -16.96875 Z M 5.203125 -14.21875 "/></g></g></g><g fill="#ffffff" fill-opacity="1"><g transform="translate(78.211398, 25.040324)"><g><path d="M 1.328125 -8.546875 C 1.328125 -10.285156 1.675781 -11.804688 2.375 -13.109375 C 3.082031 -14.421875 4.050781 -15.4375 5.28125 -16.15625 C 6.507812 -16.882812 7.878906 -17.25 9.390625 -17.25 C 10.867188 -17.25 12.15625 -16.925781 13.25 -16.28125 C 14.34375 -15.644531 15.160156 -14.84375 15.703125 -13.875 L 15.703125 -16.96875 L 18.546875 -16.96875 L 18.546875 0 L 15.703125 0 L 15.703125 -3.15625 C 15.140625 -2.164062 14.304688 -1.34375 13.203125 -0.6875 C 12.097656 -0.0390625 10.816406 0.28125 9.359375 0.28125 C 7.847656 0.28125 6.484375 -0.0859375 5.265625 -0.828125 C 4.046875 -1.578125 3.082031 -2.625 2.375 -3.96875 C 1.675781 -5.3125 1.328125 -6.835938 1.328125 -8.546875 Z M 15.703125 -8.515625 C 15.703125 -9.796875 15.441406 -10.910156 14.921875 -11.859375 C 14.410156 -12.804688 13.710938 -13.53125 12.828125 -14.03125 C 11.953125 -14.539062 10.988281 -14.796875 9.9375 -14.796875 C 8.882812 -14.796875 7.925781 -14.546875 7.0625 -14.046875 C 6.195312 -13.554688 5.503906 -12.835938 4.984375 -11.890625 C 4.472656 -10.941406 4.21875 -9.828125 4.21875 -8.546875 C 4.21875 -7.242188 4.472656 -6.113281 4.984375 -5.15625 C 5.503906 -4.195312 6.195312 -3.460938 7.0625 -2.953125 C 7.925781 -2.453125 8.882812 -2.203125 9.9375 -2.203125 C 10.988281 -2.203125 11.953125 -2.453125 12.828125 -2.953125 C 13.710938 -3.460938 14.410156 -4.195312 14.921875 -5.15625 C 15.441406 -6.113281 15.703125 -7.234375 15.703125 -8.515625 Z M 15.703125 -8.515625 "/></g></g></g><g fill="#ffffff" fill-opacity="1"><g transform="translate(99.140453, 25.040324)"><g><path d="M 9.296875 -14.640625 L 5.734375 -14.640625 L 5.734375 0 L 2.90625 0 L 2.90625 -14.640625 L 0.71875 -14.640625 L 0.71875 -16.96875 L 2.90625 -16.96875 L 2.90625 -18.171875 C 2.90625 -20.078125 3.394531 -21.46875 4.375 -22.34375 C 5.363281 -23.21875 6.941406 -23.65625 9.109375 -23.65625 L 9.109375 -21.3125 C 7.867188 -21.3125 6.992188 -21.066406 6.484375 -20.578125 C 5.984375 -20.085938 5.734375 -19.285156 5.734375 -18.171875 L 5.734375 -16.96875 L 9.296875 -16.96875 Z M 9.296875 -14.640625 "/></g></g></g><g fill="#ffffff" fill-opacity="1"><g transform="translate(109.32634, 25.040324)"><g><path d="M 9.296875 -14.640625 L 5.734375 -14.640625 L 5.734375 0 L 2.90625 0 L 2.90625 -14.640625 L 0.71875 -14.640625 L 0.71875 -16.96875 L 2.90625 -16.96875 L 2.90625 -18.171875 C 2.90625 -20.078125 3.394531 -21.46875 4.375 -22.34375 C 5.363281 -23.21875 6.941406 -23.65625 9.109375 -23.65625 L 9.109375 -21.3125 C 7.867188 -21.3125 6.992188 -21.066406 6.484375 -20.578125 C 5.984375 -20.085938 5.734375 -19.285156 5.734375 -18.171875 L 5.734375 -16.96875 L 9.296875 -16.96875 Z M 9.296875 -14.640625 "/></g></g></g><g fill="#ffffff" fill-opacity="1"><g transform="translate(119.512228, 25.040324)"><g><path d="M 3.84375 -19.734375 C 3.300781 -19.734375 2.84375 -19.914062 2.46875 -20.28125 C 2.101562 -20.65625 1.921875 -21.109375 1.921875 -21.640625 C 1.921875 -22.179688 2.101562 -22.632812 2.46875 -23 C 2.84375 -23.375 3.300781 -23.5625 3.84375 -23.5625 C 4.351562 -23.5625 4.789062 -23.375 5.15625 -23 C 5.519531 -22.632812 5.703125 -22.179688 5.703125 -21.640625 C 5.703125 -21.109375 5.519531 -20.65625 5.15625 -20.28125 C 4.789062 -19.914062 4.351562 -19.734375 3.84375 -19.734375 Z M 5.203125 -16.96875 L 5.203125 0 L 2.390625 0 L 2.390625 -16.96875 Z M 5.203125 -16.96875 "/></g></g></g><g fill="#ffffff" fill-opacity="1"><g transform="translate(127.128423, 25.040324)"><g><path d="M 1.328125 -8.515625 C 1.328125 -10.273438 1.675781 -11.804688 2.375 -13.109375 C 3.082031 -14.421875 4.0625 -15.4375 5.3125 -16.15625 C 6.5625 -16.882812 7.988281 -17.25 9.59375 -17.25 C 11.6875 -17.25 13.40625 -16.742188 14.75 -15.734375 C 16.101562 -14.722656 17 -13.316406 17.4375 -11.515625 L 14.40625 -11.515625 C 14.113281 -12.546875 13.546875 -13.359375 12.703125 -13.953125 C 11.867188 -14.554688 10.832031 -14.859375 9.59375 -14.859375 C 7.988281 -14.859375 6.691406 -14.304688 5.703125 -13.203125 C 4.710938 -12.097656 4.21875 -10.535156 4.21875 -8.515625 C 4.21875 -6.472656 4.710938 -4.894531 5.703125 -3.78125 C 6.691406 -2.664062 7.988281 -2.109375 9.59375 -2.109375 C 10.832031 -2.109375 11.863281 -2.394531 12.6875 -2.96875 C 13.519531 -3.550781 14.09375 -4.378906 14.40625 -5.453125 L 17.4375 -5.453125 C 16.976562 -3.710938 16.066406 -2.320312 14.703125 -1.28125 C 13.347656 -0.238281 11.644531 0.28125 9.59375 0.28125 C 7.988281 0.28125 6.5625 -0.078125 5.3125 -0.796875 C 4.0625 -1.523438 3.082031 -2.550781 2.375 -3.875 C 1.675781 -5.195312 1.328125 -6.742188 1.328125 -8.515625 Z M 1.328125 -8.515625 "/></g></g></g><g clip-path="url(#54d09c098f)"><path fill="#ffffff" d="M 59.59375 12.273438 L 23.792969 3.476562 L 23.757812 13.257812 L 59.597656 14.847656 Z M 59.59375 12.273438 " fill-opacity="1" fill-rule="nonzero"/></g><g clip-path="url(#c7efc8173c)"><path fill="#ffffff" d="M 59.605469 18.398438 L 23.792969 27.175781 L 23.824219 17.359375 L 59.59375 15.78125 Z M 59.605469 18.398438 " fill-opacity="1" fill-rule="nonzero"/></g></svg>